<svg aria-hidden="true" style="position: absolute; width: 0; height: 0; overflow: hidden;" version="1.1" xmlns="http://www.w3.org/2000/svg" xmlns:xlink="http://www.w3.org/1999/xlink">
<defs>
<symbol id="logo" viewBox="0 0 32 32">
<path d="M12.287 15.996c0.002-2.050 1.668-3.712 3.717-3.71s3.712 1.668 3.71 3.717c-0.002 2.049-1.668 3.712-3.717 3.71s-3.712-1.668-3.71-3.717z"></path>
<path d="M25.162 10.847c-0.423-0.393-0.684-0.935-0.684-1.533 0-1.203 1.055-2.18 2.355-2.18 0.269 0 0.527 0.042 0.768 0.119-2.652-3.514-6.863-5.786-11.601-5.786-8.021 0-14.533 6.512-14.533 14.533s6.512 14.533 14.533 14.533c8.009 0 14.514-6.493 14.533-14.498-0.315 0.412-0.812 0.678-1.371 0.678-0.934 0-1.696-0.744-1.723-1.671-1.415-0.26-2.49-1.53-2.49-3.055 0-0.403 0.075-0.788 0.213-1.14z"></path>
</symbol>
<symbol id="logo-large" viewBox="0 0 32 32">
<path stroke-linejoin="miter" stroke-linecap="square" stroke-miterlimit="3" stroke-width="1.5467" d="M12.287 15.996c0.002-2.049 1.668-3.712 3.717-3.71s3.712 1.668 3.71 3.717-1.668 3.712-3.717 3.71c-2.049-0.002-3.712-1.668-3.71-3.717z"></path>
<path stroke-linejoin="round" stroke-linecap="round" stroke-miterlimit="3" stroke-width="1.6" d="M25.162 10.847c-0.423-0.393-0.684-0.935-0.684-1.533 0-1.203 1.055-2.18 2.355-2.18 0.269 0 0.527 0.042 0.768 0.119-2.652-3.514-6.863-5.786-11.601-5.786-8.021 0-14.533 6.512-14.533 14.533s6.512 14.533 14.533 14.533c8.009 0 14.514-6.493 14.533-14.498-0.315 0.412-0.812 0.678-1.371 0.678-0.934 0-1.696-0.744-1.723-1.671-1.415-0.26-2.49-1.53-2.49-3.055 0-0.403 0.075-0.788 0.213-1.14z"></path>
<path d="M11.065 21.203c-0.089-0.149-0.162-0.258-0.219-0.328-0.031-0.037-0.051-0.053-0.059-0.046s-0.401 0.304-1.176 0.889c-0.507 0.389-0.83 0.64-0.968 0.754-0.118 0.097-0.178 0.154-0.18 0.17 0.001 0.019 0.037 0.071 0.108 0.158 0.218 0.265 0.384 0.431 0.497 0.498 0.052 0.034 0.092 0.053 0.118 0.055s0.061-0.005 0.106-0.022c0.152-0.062 0.383-0.199 0.692-0.411 0.315-0.211 0.601-0.422 0.857-0.633 0.242-0.199 0.382-0.332 0.42-0.397 0.043-0.065 0.044-0.157 0.003-0.278s-0.108-0.257-0.199-0.409zM10.727 19.34c0.034 0.030 0.106 0.111 0.215 0.244 0.024 0.029 0.063 0.079 0.117 0.151 0.059 0.072 0.106 0.128 0.139 0.169 0.251 0.311 0.441 0.58 0.571 0.807 0.084 0.143 0.178 0.33 0.28 0.56 0.108 0.231 0.162 0.36 0.161 0.39-0.002 0.021-0.083 0.129-0.242 0.323-0.156 0.192-0.304 0.362-0.443 0.51-0.392 0.41-0.815 0.802-1.267 1.175-0.441 0.363-0.705 0.542-0.792 0.536-0.040-0.001-0.16-0.071-0.362-0.21-0.202-0.134-0.383-0.268-0.542-0.403-0.351-0.297-0.738-0.672-1.161-1.127l-0.224-0.236 0.292-0.262c0.108-0.098 0.687-0.59 1.738-1.475l1.447-1.221 0.073 0.071z"></path>
<path d="M13.473 23.224c-0.056-0.073-0.149-0.146-0.279-0.221-0.035-0.021-0.083-0.046-0.144-0.075-0.121-0.058-0.215-0.079-0.281-0.061-0.072 0.019-0.204 0.182-0.396 0.487-0.188 0.303-0.381 0.658-0.58 1.063l-0.294 0.598 0.086 0.091c0.056 0.056 0.242 0.16 0.558 0.312 0.172 0.083 0.283 0.13 0.335 0.143 0.049 0.011 0.091 0.004 0.127-0.019 0.046-0.036 0.149-0.218 0.308-0.548 0.361-0.75 0.568-1.253 0.621-1.51 0.011-0.065 0.013-0.112 0.005-0.14-0.002-0.030-0.024-0.070-0.067-0.119zM12.559 21.727c0.314 0.019 0.772 0.173 1.375 0.463 0.262 0.126 0.472 0.246 0.629 0.359 0.127 0.090 0.202 0.178 0.227 0.265 0.026 0.083 0.022 0.222-0.014 0.416-0.099 0.524-0.311 1.123-0.635 1.795-0.308 0.639-0.58 1.057-0.816 1.254-0.064 0.056-0.132 0.085-0.204 0.088-0.067 0.001-0.179-0.024-0.337-0.075-0.331-0.105-0.682-0.248-1.056-0.428-0.394-0.19-0.661-0.349-0.801-0.479-0.058-0.053-0.103-0.114-0.135-0.183-0.028-0.071-0.036-0.136-0.025-0.193 0.037-0.231 0.219-0.688 0.548-1.371 0.306-0.636 0.582-1.135 0.827-1.498 0.127-0.187 0.214-0.303 0.26-0.347 0.048-0.047 0.1-0.070 0.157-0.067z"></path>
<path d="M15.365 22.413c0.037 0.002 0.125 0.004 0.263 0.007 0.142 0.003 0.239 0.004 0.291 0.003l0.241 0.006 0.12 0.292c0.063 0.153 0.195 0.483 0.394 0.989s0.321 0.812 0.365 0.915l0.086 0.189 0.040-1.153 0.034-1.154 0.564 0.039c0.38 0.026 0.574 0.043 0.581 0.051l-0.002 0.039c-0.004 0.086-0.016 0.207-0.035 0.363-0.013 0.108-0.091 0.816-0.233 2.125-0.124 1.149-0.189 1.727-0.197 1.734s-0.152 0.019-0.433 0.035c-0.281 0.012-0.446 0.017-0.494 0.015l-0.011-0.001c-0.007-0.008-0.186-0.547-0.537-1.619-0.351-1.075-0.53-1.617-0.537-1.625-0.017-0.031-0.052 0.493-0.105 1.571l-0.079 1.617-0.711-0.035 0.093-1.207c0.018-0.216 0.043-0.525 0.074-0.927 0.031-0.406 0.051-0.652 0.059-0.737l0.039-0.452-0.106-0.016-0.106-0.011 0.015-0.532 0.020-0.526 0.308 0.004z"></path>
<path d="M20.447 23.12l-0.669-1.5 1.167-0.506 0.229 0.585c0.044 0.111 0.152 0.378 0.323 0.801 0.174 0.421 0.304 0.733 0.388 0.937 0.226 0.549 0.36 0.886 0.401 1.011 0.045 0.123 0.064 0.214 0.058 0.274-0.019 0.155-0.124 0.316-0.315 0.485-0.188 0.167-0.426 0.313-0.714 0.438-0.305 0.132-0.619 0.22-0.943 0.262-0.231 0.031-0.401 0.033-0.51 0.007-0.11-0.029-0.209-0.097-0.295-0.202-0.047-0.053-0.187-0.324-0.42-0.813-0.297-0.62-0.535-1.118-0.714-1.492-0.216-0.46-0.331-0.707-0.346-0.742l-0.016-0.036 0.005-0.002c0.027-0.012 0.156-0.043 0.387-0.094 0.234-0.052 0.407-0.089 0.52-0.11l0.074-0.013 0.499 1.207c0.189 0.455 0.299 0.717 0.329 0.786 0.103 0.237 0.178 0.397 0.227 0.482 0.052 0.083 0.107 0.149 0.165 0.197 0.091 0.079 0.253 0.067 0.486-0.034 0.136-0.063 0.229-0.115 0.28-0.158 0.053-0.047 0.079-0.104 0.079-0.169 0-0.037-0.075-0.23-0.227-0.58-0.165-0.38-0.315-0.721-0.449-1.021z"></path>
<path d="M21.473 21.803l-0.526-0.463 0.083-0.091c0.060-0.066 0.397-0.406 1.010-1.019 0.611-0.616 0.918-0.924 0.924-0.924l0.735 0.608-0.242 0.241c-0.051 0.050-0.138 0.137-0.261 0.262-0.124 0.12-0.202 0.195-0.235 0.225l-0.254 0.254 0.189 0.15c0.14 0.107 0.517 0.417 1.131 0.93 0.614 0.507 0.959 0.797 1.036 0.867l0.133 0.121-0.275 0.394c-0.156 0.222-0.252 0.352-0.287 0.39l-0.011 0.012c-0.011-0.005-0.023-0.013-0.037-0.026-0.086-0.078-0.426-0.42-1.020-1.026s-0.934-0.948-1.020-1.026l-0.037-0.026-0.015 0.017c-0.028 0.030-0.11 0.132-0.247 0.305-0.14 0.171-0.217 0.264-0.233 0.281l-0.008 0.008c-0.005 0-0.183-0.154-0.533-0.463z"></path>
<path d="M26.597 20.556c-0.106-0.046-0.156-0.077-0.148-0.095 0.004-0.010 0.009-0.016 0.014-0.018 0.001-0.003 0.015-0.020 0.040-0.050 0.022-0.031 0.048-0.069 0.079-0.112 0.033-0.047 0.063-0.091 0.093-0.131 0.088-0.129 0.156-0.209 0.202-0.242 0.043-0.034 0.091-0.040 0.142-0.018 0.031 0.013 0.116 0.019 0.254 0.018 0.133-0.007 0.205-0.009 0.216-0.004 0.007 0.003-0.055 0.155-0.185 0.457l-0.198 0.458-0.173-0.093c-0.124-0.070-0.236-0.127-0.336-0.169zM23.285 18.465c0.025-0.095 0.046-0.163 0.064-0.204 0.042-0.096 0.079-0.151 0.114-0.164 0.005-0.002 0.019 0.002 0.043 0.013 0.069 0.030 0.189 0.1 0.36 0.211 0.414 0.265 0.997 0.596 1.749 0.994 0.395 0.207 0.595 0.318 0.601 0.333 0.008 0.020-0.022 0.108-0.091 0.266-0.077 0.178-0.128 0.272-0.153 0.282-0.010 0.004-0.032-0.001-0.066-0.016-0.075-0.033-0.164-0.081-0.266-0.146-0.197-0.118-0.383-0.215-0.558-0.29-0.295-0.127-0.754-0.273-1.379-0.438-0.22-0.055-0.37-0.099-0.449-0.133-0.031-0.013-0.048-0.025-0.052-0.035-0.007-0.031 0.001-0.13 0.024-0.295 0.021-0.17 0.040-0.296 0.059-0.377z"></path>
<path d="M6.567 10.684c-0.075 0.053-0.153 0.142-0.235 0.268-0.023 0.034-0.050 0.081-0.082 0.14-0.064 0.118-0.089 0.211-0.074 0.278 0.016 0.072 0.172 0.212 0.467 0.419 0.294 0.202 0.639 0.412 1.034 0.631l0.583 0.323 0.095-0.082c0.059-0.053 0.172-0.234 0.339-0.542 0.091-0.167 0.144-0.277 0.159-0.328 0.013-0.048 0.009-0.091-0.013-0.128-0.033-0.048-0.211-0.159-0.533-0.334-0.732-0.397-1.224-0.628-1.478-0.694-0.065-0.014-0.111-0.018-0.14-0.012-0.030 0.001-0.071 0.021-0.122 0.061zM5.028 11.524c0.034-0.313 0.21-0.763 0.529-1.351 0.139-0.256 0.269-0.46 0.389-0.611 0.096-0.122 0.188-0.193 0.275-0.214 0.084-0.022 0.223-0.011 0.415 0.034 0.519 0.124 1.106 0.365 1.763 0.721 0.623 0.338 1.028 0.63 1.214 0.875 0.053 0.067 0.079 0.136 0.078 0.208-0.002 0.067-0.033 0.178-0.091 0.333-0.121 0.325-0.281 0.67-0.478 1.034-0.208 0.384-0.381 0.643-0.517 0.777-0.055 0.055-0.119 0.097-0.19 0.127-0.073 0.024-0.137 0.030-0.194 0.016-0.229-0.048-0.676-0.252-1.343-0.614-0.62-0.337-1.106-0.636-1.456-0.898-0.181-0.136-0.292-0.229-0.334-0.277-0.045-0.050-0.065-0.103-0.060-0.16z"></path>
<path d="M7.908 6.883l-0.086-0.158 0.863-0.582 0.603 0.904 0.275 0.409c0.225 0.334 0.341 0.502 0.346 0.503s0.168-0.098 0.489-0.296l0.474-0.299-1.249-1.852 0.529-0.357 0.053 0.079c0.058 0.087 0.475 0.654 1.25 1.703s1.186 1.609 1.234 1.68c0.010 0.015-0.088 0.102-0.297 0.261l-0.306 0.227-0.261-0.357c-0.147-0.198-0.272-0.373-0.374-0.524l-0.11-0.162-0.608 0.41c0.084 0.119 0.212 0.298 0.383 0.538 0.169 0.237 0.296 0.415 0.38 0.534l-0.5 0.31c-0.386 0.242-0.609 0.379-0.669 0.41l-0.18 0.094-0.329-0.528c-0.053-0.086-0.138-0.215-0.255-0.388-0.116-0.178-0.258-0.396-0.426-0.652s-0.302-0.461-0.401-0.614c-0.518-0.794-0.794-1.225-0.83-1.291z"></path>
<path d="M15.272 4.395l0.092-0.919 0.691 0.069c0.316 0.031 0.51 0.055 0.584 0.069 0.074 0.011 0.113 0.028 0.119 0.051-0 0.004 0.005 0.059 0.017 0.165 0.012 0.103 0.028 0.247 0.047 0.432 0.023 0.182 0.045 0.361 0.065 0.535 0.055 0.501 0.090 0.808 0.105 0.922 0.019 0.111 0.043 0.168 0.073 0.17l0.017 0.002c0.022 0.002 0.052-0.053 0.090-0.166 0.041-0.116 0.181-0.562 0.42-1.337l0.213-0.671 0.524 0.052c0.349 0.035 0.525 0.054 0.529 0.058 0.007 0.038-0.069 1.162-0.229 3.37l-0.061 0.787-0.241-0.007c-0.135-0.002-0.31-0.014-0.525-0.035-0.123-0.012-0.2-0.022-0.233-0.029-0.033-0.011-0.048-0.027-0.046-0.050 0.001-0.007 0.009-0.053 0.025-0.138s0.038-0.208 0.065-0.371c0.031-0.166 0.060-0.32 0.085-0.464l0.166-0.934-0.065-0.080c-0.043-0.053-0.072-0.065-0.086-0.037-0.004 0.007-0.117 0.305-0.337 0.895-0.051 0.134-0.107 0.28-0.167 0.439-0.060 0.155-0.109 0.28-0.144 0.374s-0.056 0.15-0.062 0.168c-0.021 0.058-0.041 0.093-0.061 0.106-0.016 0.010-0.052 0.015-0.109 0.017-0.075-0.004-0.118-0.023-0.129-0.058-0.005-0.023-0.055-0.501-0.15-1.433-0.118-1.148-0.187-1.742-0.205-1.782-0.003-0.011-0.008-0.018-0.015-0.018l-0.023 0.009c-0.031 0.012-0.053 0.023-0.065 0.033s-0.026 0.037-0.042 0.080c-0.012 0.044-0.022 0.11-0.031 0.199-0.013 0.126-0.036 0.509-0.069 1.147-0.051 0.929-0.075 1.433-0.072 1.512l0.002 0.152-1.059-0.105 0.217-1.385c0.134-0.861 0.209-1.365 0.224-1.514 0.003-0.033 0.004-0.061 0.003-0.084 0.003-0.026 0.003-0.045 0-0.056 0.001-0.015-0.001-0.026-0.008-0.035-0.003-0.011-0.006-0.019-0.009-0.023 0-0.004-0.007-0.008-0.021-0.013-0.011-0.009-0.017-0.013-0.021-0.013l-0.084-0.059z"></path>
<path d="M21.005 3.863c0.015-0.005 0.054 0.006 0.117 0.031 0.066 0.027 0.142 0.062 0.229 0.105 0.092 0.042 0.179 0.082 0.259 0.121 0.084 0.041 0.162 0.081 0.234 0.121 0.077 0.038 0.121 0.059 0.131 0.065l0.131 0.065-0.072 0.133c-0.144 0.249-0.45 0.654-0.92 1.215-0.338 0.403-0.556 0.696-0.656 0.88-0.087 0.161-0.118 0.288-0.093 0.383 0.027 0.091 0.107 0.175 0.24 0.251l0.020 0.011c0.118 0.064 0.264 0.12 0.438 0.168 0.179 0.046 0.302 0.062 0.369 0.047 0.042-0.007 0.096-0.071 0.162-0.193 0.011-0.020 0.070-0.136 0.177-0.35 0.385-0.756 0.601-1.365 0.648-1.828 0.011-0.122 0.021-0.184 0.031-0.187l0.523 0.258 0.505 0.255-0.061 0.158c-0.047 0.119-0.133 0.291-0.255 0.518-0.212 0.391-0.392 0.694-0.539 0.912-0.3 0.428-0.526 0.719-0.678 0.874-0.049 0.050-0.112 0.077-0.191 0.081-0.075 0.006-0.202-0.008-0.38-0.040l-0.262-0.046-0.252 0.488-0.257 0.485-0.46-0.243c-0.169-0.088-0.346-0.181-0.529-0.281l-0.071-0.032 0.192-0.342c0.137-0.236 0.232-0.392 0.286-0.469l0.092-0.135-0.147-0.105c-0.219-0.153-0.35-0.294-0.394-0.424-0.026-0.069-0.025-0.16 0.002-0.273 0.029-0.116 0.091-0.282 0.187-0.497 0.103-0.229 0.242-0.504 0.416-0.826 0.477-0.879 0.754-1.33 0.83-1.353z"></path>
</symbol>
<symbol id="cart" viewBox="0 0 32 32">
<path d="M25.443 16c1.235 0 2.309-0.849 2.594-2.051l2.099-8.858c0.421-1.683-0.852-3.313-2.586-3.313h-23.99c-0.981 0-1.777 0.796-1.777 1.778s0.796 1.778 1.777 1.778h1.778v15.111c0 1.473 1.194 2.667 2.665 2.667h18.66c0.982 0 1.777-0.796 1.777-1.778s-0.795-1.778-1.777-1.778h-17.771v-3.556h16.551zM8.892 5.333h17.534l-1.685 7.111h-15.849v-7.111zM9.781 24.889c-1.472 0-2.666 1.194-2.666 2.667s1.194 2.667 2.666 2.667 2.666-1.194 2.666-2.667-1.194-2.667-2.666-2.667zM23.997 24.889c-1.472 0-2.665 1.194-2.665 2.667s1.193 2.667 2.665 2.667 2.666-1.194 2.666-2.667-1.194-2.667-2.666-2.667z"></path>
</symbol>
<symbol id="facebook" viewBox="0 0 32 32">
<path d="M19 6h5v-6h-5c-3.86 0-7 3.14-7 7v3h-4v6h4v16h6v-16h5l1-6h-6v-3c0-0.542 0.458-1 1-1z"></path>
</symbol>
<symbol id="instagram" viewBox="0 0 32 32">
<path d="M16 2.881c4.275 0 4.781 0.019 6.462 0.094 1.563 0.069 2.406 0.331 2.969 0.55 0.744 0.288 1.281 0.638 1.837 1.194 0.563 0.563 0.906 1.094 1.2 1.838 0.219 0.563 0.481 1.412 0.55 2.969 0.075 1.688 0.094 2.194 0.094 6.463s-0.019 4.781-0.094 6.463c-0.069 1.563-0.331 2.406-0.55 2.969-0.288 0.744-0.637 1.281-1.194 1.837-0.563 0.563-1.094 0.906-1.837 1.2-0.563 0.219-1.413 0.481-2.969 0.55-1.688 0.075-2.194 0.094-6.463 0.094s-4.781-0.019-6.463-0.094c-1.563-0.069-2.406-0.331-2.969-0.55-0.744-0.288-1.281-0.637-1.838-1.194-0.563-0.563-0.906-1.094-1.2-1.837-0.219-0.563-0.481-1.413-0.55-2.969-0.075-1.688-0.094-2.194-0.094-6.463s0.019-4.781 0.094-6.463c0.069-1.563 0.331-2.406 0.55-2.969 0.288-0.744 0.638-1.281 1.194-1.838 0.563-0.563 1.094-0.906 1.838-1.2 0.563-0.219 1.412-0.481 2.969-0.55 1.681-0.075 2.188-0.094 6.463-0.094zM16 0c-4.344 0-4.887 0.019-6.594 0.094-1.7 0.075-2.869 0.35-3.881 0.744-1.056 0.412-1.95 0.956-2.837 1.85-0.894 0.888-1.438 1.781-1.85 2.831-0.394 1.019-0.669 2.181-0.744 3.881-0.075 1.713-0.094 2.256-0.094 6.6s0.019 4.887 0.094 6.594c0.075 1.7 0.35 2.869 0.744 3.881 0.413 1.056 0.956 1.95 1.85 2.837 0.887 0.887 1.781 1.438 2.831 1.844 1.019 0.394 2.181 0.669 3.881 0.744 1.706 0.075 2.25 0.094 6.594 0.094s4.888-0.019 6.594-0.094c1.7-0.075 2.869-0.35 3.881-0.744 1.050-0.406 1.944-0.956 2.831-1.844s1.438-1.781 1.844-2.831c0.394-1.019 0.669-2.181 0.744-3.881 0.075-1.706 0.094-2.25 0.094-6.594s-0.019-4.887-0.094-6.594c-0.075-1.7-0.35-2.869-0.744-3.881-0.394-1.063-0.938-1.956-1.831-2.844-0.887-0.887-1.781-1.438-2.831-1.844-1.019-0.394-2.181-0.669-3.881-0.744-1.712-0.081-2.256-0.1-6.6-0.1v0z"></path>
<path d="M16 7.781c-4.537 0-8.219 3.681-8.219 8.219s3.681 8.219 8.219 8.219 8.219-3.681 8.219-8.219c0-4.537-3.681-8.219-8.219-8.219zM16 21.331c-2.944 0-5.331-2.387-5.331-5.331s2.387-5.331 5.331-5.331c2.944 0 5.331 2.387 5.331 5.331s-2.387 5.331-5.331 5.331z"></path>
<path d="M26.462 7.456c0 1.060-0.859 1.919-1.919 1.919s-1.919-0.859-1.919-1.919c0-1.060 0.859-1.919 1.919-1.919s1.919 0.859 1.919 1.919z"></path>
</symbol>
</defs>
</svg>
