<svg width="92" height="92" viewBox="0 0 92 92" fill="none" xmlns="http://www.w3.org/2000/svg">
<g clip-path="url(#clip0_9_388)">
<mask id="mask0_9_388" style="mask-type:alpha" maskUnits="userSpaceOnUse" x="-1" y="-1" width="58" height="58">
<path d="M0.766732 -0.766663H-0.766602V0.766671H0.766732V-0.766663Z" fill="white"/>
<path d="M35.3242 45.9893C35.3304 40.097 40.1186 35.3184 46.0108 35.3242C51.903 35.3303 56.6816 40.1185 56.6759 46.0107C56.6701 51.9029 51.8815 56.6816 45.9893 56.6758C40.0975 56.6697 35.3185 51.8815 35.3242 45.9893Z" fill="black"/>
</mask>
<g mask="url(#mask0_9_388)">
<path d="M35.3242 45.9893C35.3304 40.097 40.1186 35.3184 46.0108 35.3242C51.903 35.3303 56.6816 40.1185 56.6759 46.0107C56.6701 51.9029 51.8815 56.6816 45.9893 56.6758C40.0975 56.6697 35.3185 51.8815 35.3242 45.9893Z" stroke="black" stroke-width="7" stroke-miterlimit="3" stroke-linecap="square"/>
</g>
<mask id="mask1_9_388" style="mask-type:alpha" maskUnits="userSpaceOnUse" x="-1" y="-1" width="89" height="89">
<path d="M0.766732 -0.766663H-0.766602V0.766671H0.766732V-0.766663Z" fill="white"/>
<path fill-rule="evenodd" clip-rule="evenodd" d="M72.3409 31.1842C71.1238 30.0545 70.374 28.4955 70.374 26.7758C70.374 23.3166 73.4077 20.5083 77.1444 20.5083C77.9176 20.5083 78.6605 20.6287 79.352 20.8518C71.7279 10.7483 59.6207 4.21667 46.0001 4.21667C22.9392 4.21667 4.2168 22.9391 4.2168 46C4.2168 69.061 22.9392 87.7833 46.0001 87.7833C69.0273 87.7833 87.7286 69.1158 87.7827 46.1012C86.8769 47.2853 85.4482 48.0497 83.8424 48.0497C81.1564 48.0497 78.9664 45.9111 78.8882 43.2469C74.8191 42.5002 71.7291 38.8485 71.7291 34.4628C71.7291 33.3048 71.9445 32.1977 72.3409 31.1842Z" fill="black"/>
</mask>
<g mask="url(#mask1_9_388)">
<path fill-rule="evenodd" clip-rule="evenodd" d="M72.3409 31.1842C71.1238 30.0545 70.374 28.4955 70.374 26.7758C70.374 23.3166 73.4077 20.5083 77.1444 20.5083C77.9176 20.5083 78.6605 20.6287 79.352 20.8518C71.7279 10.7483 59.6207 4.21667 46.0001 4.21667C22.9392 4.21667 4.2168 22.9391 4.2168 46C4.2168 69.061 22.9392 87.7833 46.0001 87.7833C69.0273 87.7833 87.7286 69.1158 87.7827 46.1012C86.8769 47.2853 85.4482 48.0497 83.8424 48.0497C81.1564 48.0497 78.9664 45.9111 78.8882 43.2469C74.8191 42.5002 71.7291 38.8485 71.7291 34.4628C71.7291 33.3048 71.9445 32.1977 72.3409 31.1842Z" stroke="black" stroke-width="7" stroke-miterlimit="3" stroke-linecap="round" stroke-linejoin="round"/>
</g>
</g>
<defs>
<clipPath id="clip0_9_388">
<rect width="92" height="92" fill="white"/>
</clipPath>
</defs>
</svg>
